<svg width="22" height="24" viewBox="0 0 22 24" fill="none" xmlns="http://www.w3.org/2000/svg">
<path d="M2.16667 23.8333C1.57083 23.8333 1.06095 23.6214 0.637002 23.1974C0.213057 22.7735 0.000724058 22.2632 1.83616e-06 21.6667C-0.000720386 21.0701 0.211613 20.5602 0.637002 20.137C1.06239 19.7138 1.57228 19.5014 2.16667 19.5H19.5C20.0958 19.5 20.6061 19.7123 21.0308 20.137C21.4554 20.5617 21.6674 21.0716 21.6667 21.6667C21.6659 22.2618 21.454 22.772 21.0308 23.1974C20.6075 23.6228 20.0973 23.8348 19.5 23.8333H2.16667ZM4.33333 15.1667H5.85L14.3 6.74375L13.5146 5.95833L12.7563 5.2L4.33333 13.65V15.1667ZM2.16667 16.25V13.1896C2.16667 13.0451 2.19375 12.9054 2.24792 12.7703C2.30208 12.6353 2.38334 12.5132 2.49167 12.4042L14.3 0.622917C14.4986 0.424306 14.729 0.270833 14.9912 0.1625C15.2533 0.0541668 15.5285 0 15.8167 0C16.1048 0 16.3847 0.0541668 16.6562 0.1625C16.9278 0.270833 17.1716 0.433333 17.3875 0.65L18.8771 2.16667C19.0938 2.36528 19.2516 2.6 19.3505 2.87083C19.4494 3.14167 19.4993 3.42153 19.5 3.71042C19.5 3.98125 19.4502 4.24775 19.3505 4.50992C19.2508 4.77208 19.093 5.01114 18.8771 5.22708L7.09584 17.0083C6.9875 17.1167 6.86581 17.1979 6.73075 17.2521C6.5957 17.3062 6.45558 17.3333 6.31042 17.3333H3.25C2.94306 17.3333 2.68595 17.2293 2.47867 17.0213C2.27139 16.8133 2.16739 16.5562 2.16667 16.25ZM14.3 6.74375L13.5146 5.95833L12.7563 5.2L14.3 6.74375Z" fill="#FAFAFA"/>
</svg>
