<svg width="17" height="17" viewBox="0 0 17 17" fill="none" xmlns="http://www.w3.org/2000/svg">
<path d="M1.83333 16.5C1.32917 16.5 0.897722 16.3206 0.539 15.9619C0.180278 15.6032 0.000611111 15.1714 0 14.6667V1.83333C0 1.32917 0.179667 0.897722 0.539 0.539C0.898333 0.180278 1.32978 0.000611111 1.83333 0H9.16667V1.83333H1.83333V14.6667H14.6667V7.33333H16.5V14.6667C16.5 15.1708 16.3206 15.6026 15.9619 15.9619C15.6032 16.3213 15.1714 16.5006 14.6667 16.5H1.83333ZM2.75 12.8333H13.75L10.3125 8.25L7.5625 11.9167L5.5 9.16667L2.75 12.8333ZM12.8333 5.5V3.66667H11V1.83333H12.8333V0H14.6667V1.83333H16.5V3.66667H14.6667V5.5H12.8333Z" fill="#787878"/>
</svg>
