<svg width="42" height="42" viewBox="0 0 42 42" fill="none" xmlns="http://www.w3.org/2000/svg">
<circle cx="21" cy="21" r="21" fill="#FF9B60" fill-opacity="0.15"/>
<circle cx="21" cy="21" r="17.5" fill="#FF9B60" fill-opacity="0.25"/>
<path d="M21 26C21.2833 26 21.521 25.904 21.713 25.712C21.905 25.52 22.0007 25.2827 22 25C21.9993 24.7173 21.9033 24.48 21.712 24.288C21.5207 24.096 21.2833 24 21 24C20.7167 24 20.4793 24.096 20.288 24.288C20.0967 24.48 20.0007 24.7173 20 25C19.9993 25.2827 20.0953 25.5203 20.288 25.713C20.4807 25.9057 20.718 26.0013 21 26ZM21 22C21.2833 22 21.521 21.904 21.713 21.712C21.905 21.52 22.0007 21.2827 22 21V17C22 16.7167 21.904 16.4793 21.712 16.288C21.52 16.0967 21.2827 16.0007 21 16C20.7173 15.9993 20.48 16.0953 20.288 16.288C20.096 16.4807 20 16.718 20 17V21C20 21.2833 20.096 21.521 20.288 21.713C20.48 21.905 20.7173 22.0007 21 22ZM21 31C19.6167 31 18.3167 30.7373 17.1 30.212C15.8833 29.6867 14.825 28.9743 13.925 28.075C13.025 27.1757 12.3127 26.1173 11.788 24.9C11.2633 23.6827 11.0007 22.3827 11 21C10.9993 19.6173 11.262 18.3173 11.788 17.1C12.314 15.8827 13.0263 14.8243 13.925 13.925C14.8237 13.0257 15.882 12.3133 17.1 11.788C18.318 11.2627 19.618 11 21 11C22.382 11 23.682 11.2627 24.9 11.788C26.118 12.3133 27.1763 13.0257 28.075 13.925C28.9737 14.8243 29.6863 15.8827 30.213 17.1C30.7397 18.3173 31.002 19.6173 31 21C30.998 22.3827 30.7353 23.6827 30.212 24.9C29.6887 26.1173 28.9763 27.1757 28.075 28.075C27.1737 28.9743 26.1153 29.687 24.9 30.213C23.6847 30.739 22.3847 31.0013 21 31ZM21 29C23.2333 29 25.125 28.225 26.675 26.675C28.225 25.125 29 23.2333 29 21C29 18.7667 28.225 16.875 26.675 15.325C25.125 13.775 23.2333 13 21 13C18.7667 13 16.875 13.775 15.325 15.325C13.775 16.875 13 18.7667 13 21C13 23.2333 13.775 25.125 15.325 26.675C16.875 28.225 18.7667 29 21 29Z" fill="#F6782E"/>
</svg>
